<svg width="105" height="72" viewBox="0 0 105 72" fill="none" xmlns="http://www.w3.org/2000/svg">
<path d="M78.5359 0L68.3972 10.1386L69.3397 11.1175C68.6683 11.6598 67.9887 12.1889 67.3291 12.6586C66.2644 13.4191 65.2425 14.0291 64.5497 14.3152C64.505 14.3351 64.3167 14.388 63.9429 14.3863C63.3459 14.3928 62.3473 14.2407 61.1239 14.0541C59.8953 13.8688 58.4256 13.6673 56.769 13.6655C55.3237 13.6606 53.7299 13.8359 52.0518 14.2971C50.3771 13.8375 48.7864 13.6655 47.3447 13.6673C45.6863 13.6673 44.2166 13.869 42.988 14.0559C41.7645 14.2426 40.7675 14.3949 40.1707 14.3882C39.7954 14.3914 39.6085 14.3353 39.5705 14.317C38.8314 14.0144 37.7169 13.3398 36.5696 12.5048C35.9761 12.0734 35.371 11.6004 34.7707 11.1144L35.7116 10.1388L25.5729 0.000203226L0 26.4871L10.1386 36.6258L13.1063 33.5521L19.657 39.2694C19.8405 40.3655 20.1861 41.4005 20.5847 42.3829C20.8441 43.0079 21.1286 43.6096 21.4198 44.1751C20.7864 45.2235 20.4409 46.4205 20.4442 47.634C20.4425 48.8378 20.7732 50.0678 21.4527 51.1607C22.4861 52.8224 24.1412 53.8674 25.9284 54.198C25.9385 55.3802 26.2659 56.5856 26.9321 57.657C28.197 59.6907 30.3861 60.8182 32.6182 60.8148C32.7042 60.8148 32.7918 60.8016 32.8776 60.7983C32.9901 61.744 33.301 62.6865 33.8333 63.543C35.0983 65.5765 37.2888 66.7043 39.5176 66.7008C39.7393 66.7008 39.9593 66.6776 40.1823 66.6561C40.2881 67.5076 40.5709 68.3574 41.0488 69.1246C42.2013 70.9766 44.1952 72.0049 46.2237 72C47.3183 72.0016 48.4393 71.7039 49.4346 71.0856L52.4737 69.1943C53.0723 69.5811 53.7004 69.9217 54.36 70.1994C55.5886 70.7169 56.9162 71.0343 58.2969 71.036C59.8113 71.0427 61.4102 70.6277 62.7857 69.6604C63.6819 69.0355 64.4407 68.1789 65.0623 67.1689C65.1583 67.1721 65.236 67.1888 65.3352 67.1904C65.9651 67.1904 66.6563 67.0961 67.3409 66.8828C68.0302 66.6729 68.7149 66.3586 69.4457 65.9405C71.1883 64.9584 72.2332 63.5133 72.7409 62.275C72.8534 62.0039 72.9343 61.7491 73.0071 61.5029C73.4288 61.3691 73.8323 61.2052 74.1975 60.9937C75.545 60.2182 76.423 59.0395 76.9637 57.8556C77.506 56.66 77.7441 55.4184 77.7473 54.2248C77.7473 54.1073 77.7325 53.9932 77.7274 53.8775C78.6087 53.5172 79.4004 53.0162 80.0751 52.4259C80.7663 51.8206 81.3466 51.1164 81.7781 50.3128C82.2081 49.5127 82.4959 48.5966 82.4975 47.5932C82.4991 46.9401 82.3651 46.2522 82.0725 45.6074C81.9782 45.4024 81.8444 45.2139 81.722 45.0238C82.2364 44.1027 82.7602 43.0646 83.19 41.9436C83.5125 41.0953 83.7838 40.2059 83.9391 39.2716L90.7693 33.3112L93.9702 36.6262L104.109 26.4871L78.5359 0ZM28.2119 49.1007L28.0943 49.1751C27.7885 49.3638 27.4676 49.448 27.137 49.4496C26.5235 49.4464 25.9349 49.1471 25.5894 48.5899C25.4009 48.2841 25.3149 47.9616 25.3149 47.6342C25.3182 47.0175 25.6158 46.4321 26.1714 46.0866L30.1875 43.5917C30.4933 43.4016 30.8142 43.319 31.1413 43.3156C31.7581 43.3221 32.3435 43.6165 32.6908 44.1769L34.7591 42.8922L32.6908 44.1785C32.8793 44.4827 32.9635 44.8034 32.9653 45.131C32.9618 45.5608 32.8081 45.9709 32.5305 46.3016L29.0813 48.4443C28.7674 48.6393 28.4813 48.8659 28.2119 49.1007ZM33.5737 55.6695C33.2678 55.858 32.947 55.944 32.618 55.944C32.0029 55.9408 31.4144 55.6431 31.0688 55.086C30.8801 54.7801 30.7959 54.456 30.7942 54.1286C30.7957 53.7022 30.9496 53.2921 31.2257 52.9647L34.6764 50.8171C34.9889 50.6235 35.2717 50.3988 35.5412 50.164L35.6668 50.0879C35.9726 49.8978 36.2951 49.8134 36.6209 49.8134C37.2392 49.8167 37.8228 50.1144 38.1699 50.6731C38.3584 50.9789 38.4428 51.298 38.4444 51.6272C38.4412 52.2405 38.1453 52.8291 37.5831 53.178L33.5737 55.6695ZM44.4843 59.0624L40.4733 61.5558C40.1691 61.7444 39.8483 61.8303 39.5176 61.8303C38.9042 61.827 38.3155 61.5293 37.97 60.9722C37.7815 60.6647 37.6974 60.3439 37.6955 60.0149C37.7006 59.3981 37.9965 58.8146 38.552 58.4673L42.5681 55.9723C42.8739 55.7822 43.1948 55.6996 43.522 55.6996C44.1387 55.7011 44.7241 55.9987 45.0714 56.5577C45.2597 56.8637 45.3441 57.1844 45.3459 57.5134C45.3424 58.1265 45.0466 58.7117 44.4843 59.0624ZM50.7028 63.1296C50.8299 63.3329 50.8846 63.5446 50.8862 63.766C50.883 64.1778 50.6861 64.5696 50.3075 64.8061L46.8634 66.9454C46.6584 67.0743 46.4468 67.1288 46.2235 67.1288C45.8103 67.1272 45.4185 66.9271 45.1853 66.5536C45.058 66.3468 45.0033 66.1351 45.0016 65.9139C45.0065 65.4987 45.2034 65.1101 45.5753 64.8787H45.5769L49.0243 62.7359C49.2343 62.6054 49.4444 62.5507 49.6642 62.5507C50.0792 62.5539 50.4678 62.7508 50.7008 63.1261L52.7708 61.8431L50.7028 63.1296ZM77.486 48.0094C77.3091 48.3516 76.9057 48.798 76.3949 49.1105C75.8839 49.4265 75.2904 49.6115 74.7217 49.6099C74.5197 49.6099 74.3247 49.6444 74.1346 49.6941C73.7873 49.618 73.44 49.5123 73.098 49.3766C72.0382 48.9633 71.048 48.2937 70.3485 47.7282C69.9979 47.4456 69.7202 47.191 69.5349 47.0141L69.33 46.8107L69.2852 46.7644L69.2785 46.7579H69.2771C68.5957 46.0171 67.4418 45.9675 66.6994 46.6487C65.957 47.3301 65.9058 48.484 66.5888 49.2313C66.6498 49.2941 67.5676 50.2959 69.0705 51.3279C69.8245 51.8437 70.7255 52.3696 71.7621 52.7762C72.0018 52.8706 72.2515 52.958 72.5079 53.0375C72.5791 53.1978 72.67 53.3501 72.7773 53.4938L72.7725 53.4973C72.7857 53.507 72.8849 53.8214 72.8766 54.2248C72.8884 54.8977 72.6435 55.7789 72.2914 56.2649C72.1195 56.513 71.9443 56.67 71.7741 56.7676C71.6004 56.8635 71.4251 56.9264 71.0961 56.9312L70.9786 56.9296C70.9091 56.9264 70.8432 56.938 70.7753 56.9412C70.772 56.9412 70.7704 56.9412 70.7704 56.9412C69.1864 56.9479 67.7118 56.2684 66.6237 55.5244C66.0814 55.1573 65.6465 54.7836 65.3539 54.5093C65.2099 54.3737 65.0993 54.2612 65.0314 54.1919L64.9604 54.1158L64.9488 54.101H64.9472C64.2876 53.3438 63.1385 53.261 62.3762 53.9208C61.6123 54.5821 61.5297 55.7346 62.191 56.4983L62.1894 56.4969C62.2605 56.5762 63.1038 57.5482 64.5704 58.547C65.5359 59.1999 66.7958 59.8762 68.2921 60.2664C68.2756 60.3095 68.2657 60.3524 68.2458 60.3955C68.054 60.8286 67.7795 61.2749 67.0322 61.7115C66.5278 61.9994 66.1674 62.1497 65.9145 62.2258C65.6599 62.3018 65.5178 62.3168 65.3358 62.3183C65.0995 62.3217 64.7439 62.2686 64.152 62.1479C64.0446 62.1249 63.9372 62.1182 63.8297 62.1117C63.7898 62.095 63.752 62.0802 63.7089 62.0586C63.1038 61.7741 62.3663 61.2599 61.8223 60.8219C61.5494 60.6053 61.3181 60.4069 61.1592 60.2664L60.9807 60.1043L60.9394 60.0647L60.9311 60.0582C60.2019 59.3605 59.0445 59.387 58.3469 60.1159C57.6509 60.8451 57.6773 62.0025 58.4065 62.6985C58.4445 62.7331 59.2133 63.4708 60.2912 64.2445C60.4829 64.3801 60.6946 64.5174 60.9063 64.6528C60.6086 65.1274 60.2979 65.4531 59.9937 65.6697C59.5075 66.0038 58.9784 66.1624 58.2973 66.1658C57.6873 66.1674 56.9695 66.017 56.2521 65.7128C56.014 65.6136 55.781 65.473 55.5461 65.3425C55.6834 64.8299 55.7594 64.2992 55.7578 63.7666C55.7594 62.6704 55.4585 61.5494 54.8401 60.5557C53.7903 58.8676 52.0394 57.8755 50.2057 57.7135C50.2057 57.6472 50.217 57.5813 50.217 57.5134C50.2187 56.3115 49.888 55.078 49.2101 53.9867V53.9902C47.9437 51.9499 45.7511 50.8222 43.5224 50.8271C43.4365 50.8271 43.3487 50.8419 43.2629 50.8454C43.1505 49.8978 42.8396 48.9588 42.3074 48.1023H42.3088C41.2755 46.4374 39.6189 45.3927 37.8316 45.0651C37.8202 43.8829 37.4944 42.6775 36.8279 41.6061H36.8295C35.5647 39.5709 33.3705 38.4416 31.1417 38.4448C29.9364 38.4448 28.708 38.7756 27.6151 39.4534L25.269 40.9117C25.2126 40.7828 25.1417 40.6571 25.0904 40.528C24.6821 39.551 24.4257 38.587 24.3977 37.9224L24.3432 36.894L16.4947 30.0425L31.375 14.6311C32.1357 15.2546 32.9161 15.8729 33.7164 16.4516C35.0424 17.4073 36.3567 18.2506 37.6994 18.816C38.5609 19.1715 39.4007 19.2591 40.1714 19.2607C41.4048 19.2559 42.5356 19.0442 43.7145 18.8722C43.7906 18.8589 43.8699 18.8524 43.9475 18.8406C42.3273 20.2311 40.9135 21.7358 39.7181 23.1364C38.7112 24.3186 37.8614 25.4328 37.1884 26.3422C36.5239 27.2466 36.0113 27.9758 35.7864 28.2635C34.6786 29.7052 34.2026 31.4297 34.1926 33.1574C34.1975 34.7646 34.6241 36.4377 35.7319 37.8515C36.2842 38.5508 37.0182 39.1626 37.8944 39.5792C38.7691 39.9991 39.771 40.2141 40.8143 40.2141C42.109 40.2106 43.4662 39.8966 44.9032 39.2929C49.4137 37.385 54.063 36.1136 57.5614 35.3299C59.3107 34.9397 60.7739 34.6686 61.7941 34.4982C61.986 34.4667 62.1462 34.4403 62.305 34.4141L77.6105 47.6082L77.617 47.6115L77.6221 47.6198C77.62 47.6672 77.5966 47.8044 77.486 48.0094ZM79.2569 36.8938L79.2038 37.9222C79.1758 38.5107 78.9757 39.3407 78.64 40.2006C78.4696 40.6502 78.2614 41.1035 78.0432 41.5496L64.6392 29.9957C64.1184 29.5462 63.424 29.3377 62.7412 29.4238C62.6223 29.4469 52.7911 30.6804 43.0079 34.8041C42.0341 35.2156 41.3033 35.3429 40.8139 35.3397C40.4156 35.3397 40.1724 35.2685 39.9922 35.1825C39.7309 35.0552 39.5441 34.8748 39.359 34.5293C39.1821 34.189 39.0613 33.6863 39.0632 33.1572C39.0532 32.3967 39.3245 31.6228 39.6284 31.256C40.0073 30.7666 40.4701 30.0986 41.1083 29.2355C42.0555 27.9524 43.342 26.2924 44.8762 24.677C46.4071 23.0617 48.1879 21.4977 50.0546 20.3996C52.5794 18.9167 54.7305 18.5446 56.7692 18.5379C58.024 18.5362 59.2275 18.6932 60.4016 18.8701C61.5787 19.0438 62.7129 19.252 63.9431 19.2587C64.712 19.2571 65.5469 19.1694 66.4051 18.8189L66.4165 18.8156C67.7592 18.2502 69.0735 17.4069 70.3995 16.4512C71.195 15.8758 71.9786 15.2542 72.7359 14.6326L87.3833 29.8024L79.2569 36.8938Z" fill="#A59984"/>
</svg>
