<svg width="72" height="72" viewBox="0 0 72 72" fill="none" xmlns="http://www.w3.org/2000/svg">
<g clip-path="url(#clip0_29_5)">
<path d="M57.6945 14.301C54.85 9.9156 50.9549 6.31039 46.3631 3.81288C41.7712 1.31538 36.6281 0.00472709 31.401 0C23.0763 0.00833715 15.0948 3.31871 9.20794 9.20476C3.32105 15.0908 0.00953023 23.0718 0 31.3965C0.00371467 36.6255 1.31434 41.7707 3.81272 46.3643C6.3111 50.9579 9.918 54.8542 14.3055 57.699C17.15 62.0844 21.0451 65.6896 25.6369 68.1871C30.2288 70.6846 35.3719 71.9953 40.599 72C48.9237 71.9917 56.9052 68.6813 62.7921 62.7952C68.679 56.9092 71.9905 48.9282 72 40.6035C71.9963 35.3745 70.6857 30.2292 68.1873 25.6357C65.6889 21.0421 62.082 17.1458 57.6945 14.301ZM58.293 31.401C58.2859 38.5318 55.4506 45.3687 50.4092 50.4118C45.3677 55.4549 38.5318 58.2925 31.401 58.302C24.2682 58.2937 17.43 55.4562 12.3867 50.4121C7.3435 45.368 4.50715 38.5293 4.5 31.3965C4.50834 24.2649 7.34537 17.4278 12.3886 12.3854C17.4318 7.34303 24.2694 4.50715 31.401 4.5C38.5314 4.50834 45.3673 7.34489 50.4089 12.3873C55.4504 17.4297 58.2859 24.2706 58.293 31.401ZM40.599 67.5C34.7037 67.502 28.9732 65.5544 24.3 61.9605C26.6216 62.5074 28.9979 62.7882 31.383 62.7975C39.7069 62.7868 47.6868 59.4747 53.5718 53.588C59.4569 47.7012 62.7667 39.7204 62.775 31.3965C62.7747 29.0077 62.5015 26.6267 61.9605 24.3C65.5551 28.9746 67.5027 34.7067 67.5 40.6035C67.4917 47.7351 64.6546 54.5722 59.6114 59.6146C54.5682 64.657 47.7306 67.4929 40.599 67.5ZM29.151 11.25V13.5H27C24.6131 13.5 22.3239 14.4482 20.636 16.136C18.9482 17.8239 18 20.1131 18 22.5C18 24.8869 18.9482 27.1761 20.636 28.864C22.3239 30.5518 24.6131 31.5 27 31.5H29.151V42.75H28.125C26.6339 42.7476 25.2045 42.1542 24.1502 41.0998C23.0958 40.0455 22.5024 38.6161 22.5 37.125C22.5 36.5283 22.2629 35.956 21.841 35.534C21.419 35.1121 20.8467 34.875 20.25 34.875C19.6533 34.875 19.081 35.1121 18.659 35.534C18.2371 35.956 18 36.5283 18 37.125C18.0036 39.8092 19.0715 42.3825 20.9695 44.2805C22.8675 46.1785 25.4408 47.2464 28.125 47.25H29.151V51.75C29.151 52.3467 29.3881 52.919 29.81 53.341C30.232 53.7629 30.8043 54 31.401 54C31.9977 54 32.57 53.7629 32.992 53.341C33.4139 52.919 33.651 52.3467 33.651 51.75V47.25H34.875C37.5592 47.2464 40.1325 46.1785 42.0305 44.2805C43.9285 42.3825 44.9964 39.8092 45 37.125C44.9964 34.4408 43.9285 31.8675 42.0305 29.9695C40.1325 28.0715 37.5592 27.0036 34.875 27H33.651V18H36C37.1935 18 38.3381 18.4741 39.182 19.318C40.0259 20.1619 40.5 21.3065 40.5 22.5V24.75C40.5 25.3467 40.7371 25.919 41.159 26.341C41.581 26.7629 42.1533 27 42.75 27C43.3467 27 43.919 26.7629 44.341 26.341C44.7629 25.919 45 25.3467 45 24.75V22.5C45 20.1131 44.0518 17.8239 42.364 16.136C40.6761 14.4482 38.3869 13.5 36 13.5H33.651V11.25C33.651 10.6533 33.4139 10.081 32.992 9.65901C32.57 9.23705 31.9977 9 31.401 9C30.8043 9 30.232 9.23705 29.81 9.65901C29.3881 10.081 29.151 10.6533 29.151 11.25ZM40.5 37.125C40.4976 38.6161 39.9042 40.0455 38.8498 41.0998C37.7955 42.1542 36.3661 42.7476 34.875 42.75H33.651V31.5H34.875C36.3661 31.5024 37.7955 32.0958 38.8498 33.1502C39.9042 34.2045 40.4976 35.6339 40.5 37.125ZM29.151 27H27C25.8065 27 24.6619 26.5259 23.818 25.682C22.9741 24.8381 22.5 23.6935 22.5 22.5C22.5 21.3065 22.9741 20.1619 23.818 19.318C24.6619 18.4741 25.8065 18 27 18H29.151V27Z" fill="#A59984"/>
</g>
<defs>
<clipPath id="clip0_29_5">
<rect width="72" height="72" fill="white"/>
</clipPath>
</defs>
</svg>
