<svg width="40" height="40" viewBox="0 0 40 40" fill="none" xmlns="http://www.w3.org/2000/svg">
<g clip-path="url(#clip0_119_30)">
<path d="M27.5 15C27.5 16.9891 26.7098 18.8968 25.3033 20.3033C23.8968 21.7098 21.9891 22.5 20 22.5C18.0109 22.5 16.1032 21.7098 14.6967 20.3033C13.2902 18.8968 12.5 16.9891 12.5 15C12.5 13.0109 13.2902 11.1032 14.6967 9.6967C16.1032 8.29018 18.0109 7.5 20 7.5C21.9891 7.5 23.8968 8.29018 25.3033 9.6967C26.7098 11.1032 27.5 13.0109 27.5 15Z" fill="#8B7D63"/>
<path fill-rule="evenodd" clip-rule="evenodd" d="M0 20C0 14.6957 2.10714 9.60859 5.85786 5.85786C9.60859 2.10714 14.6957 0 20 0C25.3043 0 30.3914 2.10714 34.1421 5.85786C37.8929 9.60859 40 14.6957 40 20C40 25.3043 37.8929 30.3914 34.1421 34.1421C30.3914 37.8929 25.3043 40 20 40C14.6957 40 9.60859 37.8929 5.85786 34.1421C2.10714 30.3914 0 25.3043 0 20ZM20 2.5C16.7044 2.50018 13.4759 3.43091 10.686 5.18507C7.8961 6.93923 5.65821 9.44553 4.22991 12.4155C2.80161 15.3854 2.24097 18.6983 2.6125 21.9729C2.98403 25.2474 4.27263 28.3505 6.33 30.925C8.105 28.065 12.0125 25 20 25C27.9875 25 31.8925 28.0625 33.67 30.925C35.7274 28.3505 37.016 25.2474 37.3875 21.9729C37.759 18.6983 37.1984 15.3854 35.7701 12.4155C34.3418 9.44553 32.1039 6.93923 29.314 5.18507C26.5241 3.43091 23.2956 2.50018 20 2.5Z" fill="#8B7D63"/>
</g>
<defs>
<clipPath id="clip0_119_30">
<rect width="40" height="40" fill="white"/>
</clipPath>
</defs>
</svg>
